<?xml version="1.0" encoding="utf-8"?>
<svg version="1.1" id="Kico-Tools" xmlns="http://www.w3.org/2000/svg" xmlns:xlink="http://www.w3.org/1999/xlink" x="0px" y="0px"
	 viewBox="0 0 500 500" style="enable-background:new 0 0 500 500;" xml:space="preserve">
<style type="text/css">
	.st0{fill:#FFF3D4;}
	.st1{fill:#E5EEF8;}
</style>
<g>
	<path class="st0" d="M94,180.3c2.3,3.1,1,5.6-2.9,5.5l-5.3-0.1c-3.8-0.1-8.8,2.4-11.1,5.5l-3.1,4.3c-2.3,3.1-5,2.7-6.1-1l-1.5-5.1
		c-1.1-3.7-5-7.7-8.7-8.9l-5.1-1.6c-3.7-1.2-4.1-3.9-0.9-6.1l4.4-3c3.2-2.2,5.8-7.1,5.7-11l0-5.3c0-3.9,2.5-5.1,5.6-2.8l4.2,3.2
		c3.1,2.3,8.6,3.3,12.2,2.1l5.1-1.7c3.7-1.2,5.6,0.8,4.3,4.4l-1.8,5c-1.3,3.6-0.5,9.1,1.8,12.3L94,180.3z"/>
</g>
<g>
	<path class="st0" d="M178.5,297.9c1.8,3.4,0.1,5.7-3.7,5l-1.3-0.2c-3.8-0.7-9.1,1-11.8,3.7l-0.9,0.9c-2.7,2.7-5.4,1.8-5.9-2
		l-0.2-1.3c-0.5-3.8-3.7-8.4-7.2-10.1l-1.1-0.6c-3.4-1.7-3.4-4.5,0.1-6.2l1.2-0.6c3.5-1.7,6.8-6.1,7.4-9.9l0.2-1.3
		c0.6-3.8,3.3-4.6,5.9-1.8l0.9,0.9c2.7,2.8,7.9,4.6,11.7,4l1.3-0.2c3.8-0.6,5.4,1.7,3.6,5.1l-0.6,1.1c-1.8,3.4-1.9,9-0.1,12.4
		L178.5,297.9z"/>
</g>
<g>
	<path class="st0" d="M418.6,340.8c-0.1,3.8-2.6,5-5.6,2.6l-4.9-3.9c-3-2.4-8.5-3.5-12.2-2.4l-6,1.8c-3.7,1.1-5.6-0.9-4.2-4.5
		l2.2-5.8c1.4-3.6,0.7-9.1-1.5-12.3l-3.6-5.1c-2.2-3.2-0.8-5.6,3-5.4l6.2,0.3c3.8,0.2,8.9-2.2,11.2-5.2l3.8-5
		c2.3-3.1,5.1-2.5,6.1,1.2l1.6,6c1,3.7,4.8,7.8,8.5,9.1l5.9,2.1c3.6,1.3,4,4,0.8,6.1l-5.2,3.4c-3.2,2.1-5.9,7-6,10.8L418.6,340.8z"
		/>
</g>
<g>
	<path class="st0" d="M277.3,445.3c2.2,3.2,0.8,5.6-3,5.4l-16-0.8c-3.8-0.2-8.9,2.1-11.2,5.2l-9.8,12.7c-2.3,3.1-5.1,2.5-6.1-1.2
		l-4.2-15.5c-1-3.7-4.8-7.8-8.4-9.1l-15.1-5.4c-3.6-1.3-4-4.1-0.7-6.2l13.5-8.8c3.2-2.1,5.9-7,6-10.8l0.4-16.1
		c0.1-3.8,2.6-5,5.6-2.6l12.5,10.1c3,2.4,8.5,3.5,12.2,2.4l15.4-4.6c3.7-1.1,5.6,1,4.2,4.5l-5.7,15c-1.4,3.6-0.7,9.1,1.5,12.3
		L277.3,445.3z"/>
</g>
<g>
	<path class="st0" d="M292.2,62.1c-0.8,3.7-3.5,4.4-5.9,1.4c-2.4-2.9-7.5-5-11.3-4.7c-3.8,0.4-5.2-2-3.2-5.2c2-3.2,2.4-8.7,0.9-12.2
		c-1.5-3.5,0.3-5.6,4-4.7c3.7,0.9,9-0.4,11.9-2.9s5.4-1.5,5.7,2.3c0.3,3.8,3.1,8.5,6.4,10.4c3.3,1.9,3.1,4.7-0.5,6.1
		C296.7,54.2,293.1,58.4,292.2,62.1z"/>
</g>
<g>
	<path class="st0" d="M400.7,54c0.8,1.4,0.1,2.3-1.4,2.1c-1.6-0.2-3.7,0.5-4.8,1.7s-2.2,0.8-2.4-0.7c-0.3-1.6-1.6-3.4-3.1-4
		s-1.5-1.8-0.1-2.5s2.7-2.6,2.9-4.2s1.3-1.9,2.4-0.8c1.1,1.1,3.3,1.8,4.9,1.5c1.5-0.3,2.2,0.6,1.5,2C399.9,50.4,400,52.7,400.7,54z"
		/>
</g>
<g>
	<path class="st0" d="M352.6,237.9c1.2,3.7-0.9,5.6-4.5,4.3l-11.3-4.1c-3.6-1.3-9.1-0.6-12.3,1.7l-9.7,7c-3.1,2.2-5.6,0.9-5.5-2.9
		l0.4-12c0.1-3.8-2.3-8.9-5.4-11.2l-9.6-7.1c-3.1-2.3-2.6-5,1.1-6.1l11.5-3.3c3.7-1.1,7.7-4.9,8.9-8.6l3.8-11.4c1.2-3.7,4-4,6.1-0.8
		l6.7,9.9c2.2,3.2,7.1,5.8,10.9,5.9l12,0.1c3.8,0,5.1,2.5,2.7,5.6l-7.4,9.4c-2.4,3-3.4,8.5-2.2,12.2L352.6,237.9z"/>
</g>
<g>
	<path class="st0" d="M40,26c0.8,1.8-0.1,3-2.1,2.5c-2-0.5-4.8,0.2-6.3,1.5c-1.5,1.3-2.9,0.8-3-1.2s-1.7-4.5-3.4-5.5
		c-1.7-1-1.6-2.5,0.2-3.2c1.9-0.8,3.7-3,4.2-5c0.4-2,1.9-2.3,3.1-0.8c1.3,1.5,4,2.6,6,2.4c2-0.2,2.8,1,1.7,2.8
		C39.4,21.2,39.2,24.1,40,26z"/>
</g>
<g>
	<path class="st0" d="M162.7,70c0.6,0.9,0.1,1.6-0.9,1.4c-1.1-0.1-2.5,0.5-3.2,1.3c-0.7,0.8-1.4,0.6-1.7-0.4s-1.2-2.2-2.2-2.6
		c-1-0.4-1-1.2-0.1-1.7c0.9-0.5,1.7-1.8,1.8-2.9c0.1-1.1,0.8-1.3,1.6-0.6c0.8,0.7,2.3,1.1,3.3,0.8c1-0.2,1.5,0.3,1.1,1.3
		S162.2,69.1,162.7,70z"/>
</g>
<g>
	<path class="st0" d="M460.4,453.7c0.1,1-0.4,1.4-1.3,0.9s-2.3-0.5-3.1-0.1s-1.4,0-1.3-0.9c0.2-1-0.2-2.3-0.9-3
		c-0.7-0.7-0.5-1.4,0.5-1.5c1-0.1,2.1-0.9,2.6-1.8c0.4-0.9,1.2-0.9,1.6,0c0.4,0.9,1.5,1.7,2.5,1.9s1.2,0.8,0.5,1.5
		C460.8,451.4,460.3,452.7,460.4,453.7z"/>
</g>
<g>
	<path class="st0" d="M451.6,156.5c0,2.4-1.5,3.2-3.4,1.8c-1.9-1.4-5.3-2-7.6-1.2s-3.5-0.5-2.7-2.7c0.8-2.3,0.2-5.7-1.2-7.6
		c-1.4-1.9-0.6-3.5,1.7-3.4c2.4,0,5.5-1.6,6.9-3.5c1.4-2,3.1-1.7,3.8,0.6c0.7,2.3,3.2,4.7,5.5,5.4c2.3,0.7,2.6,2.4,0.6,3.8
		C453.2,151,451.6,154.1,451.6,156.5z"/>
</g>
<g>
	<path class="st0" d="M463.4,27.2c1.5,2.9,0.1,4.8-3.1,4.3c-3.2-0.5-7.7,0.9-10,3.3c-2.3,2.3-4.5,1.6-5-1.6s-3.3-7.1-6.2-8.5
		c-2.9-1.4-2.9-3.8,0-5.3c2.9-1.5,5.7-5.3,6.1-8.5s2.7-4,5-1.6c2.3,2.3,6.8,3.8,10,3.2c3.2-0.6,4.6,1.3,3.1,4.2
		S461.9,24.3,463.4,27.2z"/>
</g>
<g>
	<path class="st0" d="M50.8,324.1c1.3,1.6,0.6,3-1.4,3c-2.1,0-4.7,1.4-5.9,3.1s-2.6,1.5-3.3-0.4c-0.7-2-2.8-4-4.8-4.6
		c-2-0.6-2.3-2-0.6-3.3s3-3.9,2.9-6c-0.1-2.1,1.2-2.8,2.9-1.6s4.6,1.6,6.6,0.9c1.9-0.7,3,0.3,2.4,2.3
		C49,319.5,49.5,322.5,50.8,324.1z"/>
</g>
<circle class="st1" cx="75.1" cy="121.6" r="4.3"/>
<circle class="st1" cx="124.5" cy="361.7" r="7.1"/>
<circle class="st1" cx="273.6" cy="361.7" r="10.8"/>
<circle class="st1" cx="473.9" cy="380.2" r="7.7"/>
<circle class="st1" cx="438.7" cy="218.9" r="4.7"/>
<circle class="st1" cx="220.7" cy="24" r="5.5"/>
<circle class="st1" cx="98.1" cy="43.5" r="2.5"/>
<circle class="st1" cx="356.8" cy="131.2" r="6"/>
<circle class="st1" cx="362.8" cy="472.8" r="8.3"/>
<circle class="st1" cx="84.7" cy="435.9" r="5.3"/>
<circle class="st1" cx="194.7" cy="185.2" r="11.3"/>
<circle class="st1" cx="101.3" cy="237.7" r="6.9"/>
<circle class="st1" cx="462.8" cy="100.8" r="3.8"/>
<circle class="st1" cx="356.1" cy="22.8" r="4.2"/>
<circle class="st1" cx="239.1" cy="274" r="5.7"/>
<g>
	<path class="st0" d="M215.2,113c0.6,2-0.5,3-2.5,2.2c-1.9-0.8-4.9-0.4-6.6,0.7c-1.7,1.2-3,0.4-2.9-1.6c0.1-2.1-1.1-4.8-2.7-6.1
		s-1.3-2.7,0.7-3.3c2-0.5,4.2-2.5,4.9-4.5c0.7-1.9,2.2-2.1,3.3-0.4c1.1,1.7,3.7,3.2,5.8,3.3c2.1,0.1,2.7,1.4,1.4,3
		S214.6,111,215.2,113z"/>
</g>
</svg>
